<svg xmlns="http://www.w3.org/2000/svg" data-name="Layer 1" viewBox="0 0 100 125" x="0px" y="0px"><title>Internet_of_Things_dotted</title><rect x="8.04" y="59.25" width="31.78" height="19.46"/><path d="M8,81.2h31.9a2.34,2.34,0,0,0,2.34-2.34V59.1a2.34,2.34,0,0,0-2.34-2.34h-25c.07-1.23.19-2.46.37-3.67l-2-.29c-.19,1.31-.32,2.64-.39,4H8A2.34,2.34,0,0,0,5.64,59.1V78.86A2.34,2.34,0,0,0,8,81.2ZM6.58,59.1A1.4,1.4,0,0,1,8,57.7h31.9a1.4,1.4,0,0,1,1.4,1.4V78.86a1.4,1.4,0,0,1-1.4,1.4H8a1.4,1.4,0,0,1-1.4-1.4Z"/><path d="M46.6,87.64l-4.17-5.43a1.18,1.18,0,0,0-.93-.46H6.28a1.18,1.18,0,0,0-.93.46L1.26,87.65H46.6Z"/><path d="M48.77,99.69c1.34.17,2.72.27,4.09.3l0-2c-1.3,0-2.61-.13-3.89-.29Z"/><path d="M56.81,97.89l.15,2c1.36-.1,2.73-.27,4.06-.5l-.35-2C59.41,97.63,58.11,97.79,56.81,97.89Z"/><path d="M40.79,97.88c1.29.43,2.62.81,3.95,1.11l.44-2A38.84,38.84,0,0,1,41.43,96Z"/><path d="M64.47,96.54,65,98.47a40.38,40.38,0,0,0,3.89-1.3l-.73-1.86A38.49,38.49,0,0,1,64.47,96.54Z"/><path d="M33.33,94.51c1.18.68,2.4,1.31,3.65,1.87l.82-1.82c-1.18-.53-2.35-1.13-3.47-1.78Z"/><path d="M71.72,93.7l.91,1.78c1.21-.62,2.4-1.31,3.55-2.05l-1.09-1.68A38.84,38.84,0,0,1,71.72,93.7Z"/><path d="M28,88.23l-.08.09H1.26v.77a.24.24,0,0,0,.16.23l2.27.82a.78.78,0,0,0,.26,0H27.23c.86.73,1.75,1.44,2.66,2.1l1.17-1.62-.63-.48H43.91a.78.78,0,0,0,.26,0l2.27-.82a.24.24,0,0,0,.16-.23v-.77H28.12Z"/><path d="M95.68,56.76h-.77c0-.67-.08-1.33-.15-2l-2,.2c.06.59.1,1.19.13,1.79H78.14a3,3,0,0,0-3,3V87.14a3,3,0,0,0,3,3H95.68a3,3,0,0,0,3-3V59.8A3,3,0,0,0,95.68,56.76ZM98,87.14a2.37,2.37,0,0,1-2.36,2.36H78.14a2.37,2.37,0,0,1-2.36-2.36V59.8a2.37,2.37,0,0,1,2.36-2.36H95.68A2.37,2.37,0,0,1,98,59.8Z"/><rect x="76.72" y="59.98" width="20.38" height="25.93"/><circle cx="86.91" cy="88.04" r="1.04"/><path d="M92.2,51.11l2-.4c-.27-1.34-.61-2.67-1-4l-1.91.59C91.62,48.57,91.94,49.84,92.2,51.11Z"/><path d="M17.12,45.55l-1.88-.68A40.67,40.67,0,0,0,14,48.78l1.94.49A38.93,38.93,0,0,1,17.12,45.55Z"/><path d="M91.74,42.9c-.53-1.25-1.13-2.49-1.78-3.69l-1.75,1c.62,1.14,1.19,2.32,1.7,3.51Z"/><path d="M20.49,38.53l-1.71-1c-.71,1.16-1.37,2.37-2,3.6l1.8.87C19.19,40.79,19.82,39.64,20.49,38.53Z"/><path d="M87.81,35.72c-.77-1.12-1.6-2.22-2.48-3.26L83.8,33.74c.83,1,1.63,2,2.36,3.1Z"/><path d="M82.54,29.46c-1-.95-2-1.86-3.07-2.71l-1.25,1.56c1,.81,2,1.68,2.92,2.58Z"/><path d="M76.14,24.36c-1.15-.74-2.34-1.43-3.55-2l-.91,1.78c1.15.59,2.28,1.24,3.38,1.95Z"/><path d="M25.2,32.33,23.73,31c-.92,1-1.81,2.05-2.63,3.14l1.59,1.21C23.47,34.28,24.32,33.28,25.2,32.33Z"/><path d="M31,27.17l-1.17-1.62c-1.1.8-2.18,1.66-3.2,2.56L28,29.6C29,28.75,30,27.93,31,27.17Z"/><path d="M37.77,23.26l-.83-1.82c-1.24.56-2.47,1.2-3.64,1.88l1,1.73C35.42,24.4,36.58,23.8,37.77,23.26Z"/><path d="M68.86,20.62A40.63,40.63,0,0,0,65,19.32l-.54,1.93c1.25.35,2.49.77,3.69,1.24Z"/><path d="M62.54,11.93V11A3.56,3.56,0,0,0,60.65,7.9,5.69,5.69,0,0,1,59,5.17a5.49,5.49,0,0,1-.13-1.45,2.63,2.63,0,0,0-.25-1.41c-.5-.91-1.65-1.22-4.9-1.3h-.61c-3.25.09-4.39.39-4.89,1.3A2.63,2.63,0,0,0,48,3.72a5.49,5.49,0,0,1-.13,1.45A5.69,5.69,0,0,1,46.23,7.9,3.56,3.56,0,0,0,44.34,11v7.89c-1.21.29-2.41.62-3.59,1l.64,1.89c1-.33,2-.6,3-.85v3.49a3.56,3.56,0,0,0,1.89,3.14,5.69,5.69,0,0,1,1.62,2.72A5.49,5.49,0,0,1,48,31.79a2.63,2.63,0,0,0,.25,1.41c.5.91,1.65,1.22,4.9,1.3h.61c3.25-.09,4.39-.39,4.9-1.3a2.63,2.63,0,0,0,.25-1.41A5.49,5.49,0,0,1,59,30.34a5.69,5.69,0,0,1,1.62-2.72,3.56,3.56,0,0,0,1.89-3.14V16a1.05,1.05,0,0,0,.86-1V13A1.05,1.05,0,0,0,62.54,11.93Zm-14-6.61a6.13,6.13,0,0,0,.15-1.62,2,2,0,0,1,.17-1.08c.31-.55,1.09-.87,4.32-1h.59c3.24.09,4,.4,4.33,1a2,2,0,0,1,.17,1.08,6.14,6.14,0,0,0,.15,1.62,5.85,5.85,0,0,0,1.05,2.18,3.56,3.56,0,0,0-.44,0H47.9a3.56,3.56,0,0,0-.44,0A5.85,5.85,0,0,0,48.51,5.33Zm9.87,24.86a6.14,6.14,0,0,0-.15,1.62,2,2,0,0,1-.17,1.08c-.31.55-1.09.87-4.32,1h-.59c-3.24-.09-4-.4-4.33-1a2,2,0,0,1-.17-1.08,6.12,6.12,0,0,0-.15-1.62A5.85,5.85,0,0,0,47.46,28a3.56,3.56,0,0,0,.44,0H59a3.55,3.55,0,0,0,.44,0A5.85,5.85,0,0,0,58.38,30.18Zm4.36-15.26a.38.38,0,0,1-.38.38h-.08l-.4-.08v9.25A2.89,2.89,0,0,1,59,27.36H47.9A2.89,2.89,0,0,1,45,24.48V11A2.89,2.89,0,0,1,47.9,8.15H59A2.89,2.89,0,0,1,61.87,11v1.64l.4-.08a.39.39,0,0,1,.46.38Z"/><rect x="45.74" y="8.87" width="15.41" height="17.76" rx="2.68" ry="2.68"/><text x="0" y="115" fill="#000000" font-size="5px" font-weight="bold" font-family="'Helvetica Neue', Helvetica, Arial-Unicode, Arial, Sans-serif">Created by Davo Sime</text><text x="0" y="120" fill="#000000" font-size="5px" font-weight="bold" font-family="'Helvetica Neue', Helvetica, Arial-Unicode, Arial, Sans-serif">from the Noun Project</text></svg>